<?xml version="1.0" encoding="UTF-8"?>
<svg viewBox="0 0 772.03998 772.03998" xmlns="http://www.w3.org/2000/svg" xmlns:xlink="http://www.w3.org/1999/xlink">
 <defs>
  <filter id="j" x="-.35037" y="-.26353" width="1.7008" height="1.5271">
   <feGaussianBlur stdDeviation="11.0831"/>
  </filter>
  <filter id="i" x="-.2674" y="-.45334" width="1.5348" height="1.9067">
   <feGaussianBlur stdDeviation="3.5453"/>
  </filter>
  <filter id="a" x="-.26173" y="-.20457" width="1.5235" height="1.4092">
   <feGaussianBlur stdDeviation="1.8728"/>
  </filter>
  <filter id="h" x="-.25805" y="-.20169" width="1.5161" height="1.4034">
   <feGaussianBlur stdDeviation="1.8464"/>
  </filter>
  <filter id="g" x="-.25612" y="-.2893" width="1.5122" height="1.5786">
   <feGaussianBlur stdDeviation="20.4579"/>
  </filter>
  <filter id="f" x="-.11309" y="-.14261" width="1.2262" height="1.2852">
   <feGaussianBlur stdDeviation="8.6192"/>
  </filter>
  <filter id="k" x="-.08421" y="-.42648" width="1.1684" height="1.853">
   <feGaussianBlur stdDeviation="5.5646"/>
  </filter>
  <filter id="l" x="-.10657" y="-.1873" width="1.2131" height="1.3746">
   <feGaussianBlur stdDeviation="3.3445"/>
  </filter>
  <linearGradient id="b">
   <stop stop-color="#999" stop-opacity="0" offset="0"/>
   <stop offset="1"/>
  </linearGradient>
  <linearGradient id="e" x1="349.69" x2="299.33" y1="418.28" y2="410.2" gradientUnits="userSpaceOnUse">
   <stop stop-color="#fff" offset="0"/>
   <stop stop-color="#fff" stop-opacity="0" offset="1"/>
  </linearGradient>
  <radialGradient id="d" cx="344.44" cy="443.44" r="134.35" gradientTransform="matrix(1.0977 -.01504 .01596 1.1653 -41.732 -72.368)" gradientUnits="userSpaceOnUse" xlink:href="#b"/>
  <radialGradient id="c" cx="372.34" cy="487.71" r="134.35" gradientTransform="matrix(1.0677 -.00044267 .00047693 1.1504 -22.006 -70.152)" gradientUnits="userSpaceOnUse" xlink:href="#b"/>
 </defs>
 <path transform="matrix(2.6533 0 0 4.2288 -440.28 -2159.7)" d="m427.29 670.02c0 8.6473-35.502 15.657-79.297 15.657s-79.297-7.01-79.297-15.657 35.502-15.657 79.297-15.657 79.297 7.01 79.297 15.657z" filter="url(#k)" opacity=".9401"/>
 <path transform="matrix(2.5941 0 0 2.5941 -584.88 -915.47)" d="m508.11 491.73c0 74.2-60.151 134.35-134.35 134.35s-134.35-60.151-134.35-134.35 60.151-134.35 134.35-134.35 134.35 60.151 134.35 134.35z" fill="#999"/>
 <path transform="matrix(2.5941 0 0 2.5941 -584.88 -915.47)" d="m508.11 491.73c0 74.2-60.151 134.35-134.35 134.35s-134.35-60.151-134.35-134.35 60.151-134.35 134.35-134.35 134.35 60.151 134.35 134.35z" fill="url(#d)"/>
 <path transform="matrix(2.5941 0 0 2.5941 -584.88 -915.47)" d="m508.11 491.73c0 74.2-60.151 134.35-134.35 134.35s-134.35-60.151-134.35-134.35 60.151-134.35 134.35-134.35 134.35 60.151 134.35 134.35z" fill="url(#c)"/>
 <path transform="matrix(2.5941 0 0 2.5941 -584.88 -915.47)" d="m295.97 488.7c-28.686-18.153 2.4644-92.51 45.457-74.751 31.167 12.874 21.548 17.844 8.0812 46.467-11.188 23.778-21.164 48.772-53.538 28.284z" fill="#fff" filter="url(#j)"/>
 <path transform="matrix(2.5941 0 0 2.5941 -584.88 -915.47)" d="m284.36 547.29c-21.692-16.014 43.953-14.875 83.72-57.22 36.976-39.373 54.16-82.542 78.409-70.565 30.235 14.933 40.56 94.746-10.102 139.91-65.135 58.062-121.21 10.633-152.03-12.122z" filter="url(#g)" opacity=".5913"/>
 <path transform="matrix(2.5941 0 0 2.5941 -584.88 -915.47)" d="m280.82 486.42c8.9251 34.623 27.712 6.4479 37.881 2.5254z" fill="#f2f2f2" filter="url(#i)" opacity=".3787"/>
 <path transform="matrix(2.5941 0 0 2.5941 -584.88 -915.47)" d="m267.56 457.51c3.6719 7.2012 7.9891 17.638 17.046 24.117l-15.91-8.8388c1.157-4.069-0.44429-9.9768-1.1364-15.279z" fill="#fff" filter="url(#h)"/>
 <path transform="matrix(2.5941 0 0 2.5941 -584.88 -915.47)" d="m276.02 431.24c2.7441 3.2798 5.4104 8.512 9.7227 9.5964-5.4867 5.4807-7.8947 9.0413-7.3236 16.541-1.4085-3.626-3.2315-6.6717-6.3134-7.955 2.1502-3.8202 3.111-10.659 3.9143-18.183z" fill="#fff" filter="url(#a)"/>
 <path transform="matrix(2.5941 0 0 2.5941 -584.88 -915.47)" d="m292.44 415.71c2.7441 3.2798-0.14539 5.4816 4.1669 6.566-5.4867 5.4807-5.8744 1.0864-5.3033 8.5863-1.4085-3.626-0.70614-6.798-3.7881-8.0812 2.1502-3.8202 4.1212 0.453 4.9245-7.0711z" fill="#fff" filter="url(#a)"/>
 <path transform="matrix(2.5941 0 0 2.5941 -584.88 -915.47)" d="m311.38 407.25c4.2902-2.8981 33.314-3.8605 36.492 1.7678-3.4664 6.4908-6.1269 7.021-5.5558 14.521-1.7377-5.9306-32.365-10.343-35.103-9.2176 2.1502-3.8202 3.3635 0.45299 4.1669-7.0711z" fill="url(#e)" filter="url(#a)" opacity=".7847"/>
 <path transform="matrix(2.5941 0 0 2.5941 -584.88 -915.47)" d="m307.27 579.91c7.8501-17.132 29.191 29.618 119.18-9.1369 56.934-24.519 59.558-120.05 59.334-109.26-0.30157 14.531 25.634 97.717-41.408 136.33-91.157 52.507-144.01-2.8754-137.11-17.941z" fill="#6e6e6e" filter="url(#f)" opacity=".411"/>
 <path transform="matrix(2.5941 0 0 2.5941 -584.88 -915.47)" d="m393.51 617.23c-9.6448-0.72889 15.034-5.0447 35.677-16.779 23.307-13.248 39.432-33.58 37.299-22.997-2.827 14.025-18.856 18.334-31.564 26.685-16.657 10.946-30.31 13.93-41.412 13.091z" fill="#9494a6" filter="url(#l)" opacity=".4932"/>
</svg>
